#define fire_width 8
#define fire_height 8
static unsigned char fire_bits[] = {
   0x08, 0x1c, 0x36, 0x2a, 0x6b, 0x5d, 0x41, 0x3e };
