#define hdd_width 8
#define hdd_height 8
static unsigned char hdd_bits[] = {
   0x7f, 0x41, 0x5d, 0x55, 0x5d, 0x51, 0x41, 0x7f };
